<svg xmlns="http://www.w3.org/2000/svg" fill="#1A1A1A" viewBox="0 0 24 24"><path d="M19.2681 8.91288C19.2687 9.03226 19.2454 9.15054 19.1996 9.26079C19.1539 9.37105 19.0865 9.47105 19.0016 9.55493L12.9445 15.612C12.8211 15.7367 12.6738 15.8353 12.5115 15.9018C12.3491 15.9684 12.1751 16.0017 11.9996 15.9997C11.6491 16.0075 11.3096 15.877 11.0547 15.6362L4.99764 9.57916C4.8275 9.40881 4.73193 9.17788 4.73193 8.93711C4.73193 8.69634 4.8275 8.46542 4.99764 8.29506C5.08117 8.20935 5.18101 8.14122 5.29128 8.09471C5.40155 8.04819 5.52002 8.02423 5.6397 8.02423C5.75937 8.02423 5.87784 8.04819 5.98811 8.09471C6.09838 8.14122 6.19822 8.20935 6.28175 8.29506L11.9996 13.9887L17.7175 8.27084C17.801 8.18512 17.9009 8.11699 18.0111 8.07048C18.1214 8.02396 18.2399 8 18.3596 8C18.4792 8 18.5977 8.02396 18.708 8.07048C18.8182 8.11699 18.9181 8.18512 19.0016 8.27084C19.0871 8.3543 19.1548 8.45422 19.2006 8.56457C19.2464 8.67492 19.2694 8.79341 19.2681 8.91288Z"></path></svg>